<?xml version="1.0" encoding="UTF-8"?>
<svg xmlns="http://www.w3.org/2000/svg" version="1.1" xmlns:inkscape="http://www.inkscape.org/namespaces/inkscape" xmlns:sodipodi="http://sodipodi.sourceforge.net/DTD/sodipodi-0.dtd" xmlns:svg="http://www.w3.org/2000/svg" viewBox="0 0 341.3 341.3">
  <defs>
    <style>
      .cls-1 {
        fill: #fffdfe;
        stroke: #fff;
        stroke-miterlimit: 10;
        stroke-width: 6px;
      }

      .cls-2 {
        fill: #fff;
      }

      .cls-3 {
        fill: #407e8d;
      }

      .cls-4 {
        fill: #231f20;
      }
    </style>
  </defs>
  <!-- Generator: Adobe Illustrator 28.6.0, SVG Export Plug-In . SVG Version: 1.2.0 Build 709)  -->
  <g>
    <g id="svg9">
      <g>
        <path class="cls-1" d="M31.8,4h278.2c15.3,0,27.7,12.4,27.7,27.7v278.2c0,15.3-12.4,27.7-27.7,27.7H31.8c-15.3,0-27.7-12.4-27.7-27.7V31.7c0-15.3,12.4-27.7,27.7-27.7Z"/>
        <path class="cls-4" d="M33.1,6.7h275.7c14.4,0,26.2,11.8,26.2,26.3v275.7c0,14.5-11.7,26.2-26.2,26.2H33.1c-14.5,0-26.2-11.7-26.2-26.2V33c0-14.5,11.7-26.3,26.2-26.3Z"/>
      </g>
      <rect class="cls-2" x="95.2" y="30.1" width="144.2" height="288.6" rx="71.9" ry="71.9" transform="translate(172.3 -67.2) rotate(45)"/>
      <circle class="cls-3" cx="244.4" cy="97.3" r="15.7"/>
      <rect class="cls-4" x="118.2" y="99.8" width="87.5" height="160.5" transform="translate(174.7 -61.8) rotate(45)"/>
    </g>
  </g>
</svg>